PathFileType	4	(X/Y/Z)	D:\Documents\Paper\paper_current\paper_step_1_data\data_step_3\marker\30DL\subject_01.tsv
DataRate	CameraRate	NumFrames	NumMarkers	Units	OrigDataRate	OrigDataStartFrame	OrigNumFrames
200	200	7	43	mm	200	2086	200
Frame#	Time	Top.Head			L.Acromium			R.Acromium			Sternum			L.ASIS			R.ASIS			V.Sacral			R.Knee.Lat			R.Knee.Med			L.Knee.Lat			L.Knee.Med			L.Ankle.Lat			L.Toe.Tip			R.Heel			R.Ankle.Med			R.Ankle.Lat			L.Toe.Med			L.Toe.Lat			L.Heel			L.Ankle.Med			L.Shank1			L.Shank2			R.Toe.Tip			R.Toe.Med			R.Toe.Lat			L.Thigh2			L.Thigh1			L.Thigh3			R.Thigh3			R.Thigh1			R.Thigh2			R.Shank1			R.Shank2			R.Shank3			L.Shank3			L.Shank4			R.Shank4			L.Thigh4			R.Thigh4			R.Heel.Lat			R.Heel.Med			L.Heel.Lat			L.Heel.Med		
		X1	Y1	Z1	X2	Y2	Z2	X3	Y3	Z3	X4	Y4	Z4	X5	Y5	Z5	X6	Y6	Z6	X7	Y7	Z7	X8	Y8	Z8	X9	Y9	Z9	X10	Y10	Z10	X11	Y11	Z11	X12	Y12	Z12	X13	Y13	Z13	X14	Y14	Z14	X15	Y15	Z15	X16	Y16	Z16	X17	Y17	Z17	X18	Y18	Z18	X19	Y19	Z19	X20	Y20	Z20	X21	Y21	Z21	X22	Y22	Z22	X23	Y23	Z23	X24	Y24	Z24	X25	Y25	Z25	X26	Y26	Z26	X27	Y27	Z27	X28	Y28	Z28	X29	Y29	Z29	X30	Y30	Z30	X31	Y31	Z31	X32	Y32	Z32	X33	Y33	Z33	X34	Y34	Z34	X35	Y35	Z35	X36	Y36	Z36	X37	Y37	Z37	X38	Y38	Z38	X39	Y39	Z39	X40	Y40	Z40	X41	Y41	Z41	X42	Y42	Z42	X43	Y43	Z43
2684	13.415	-68.454	1923.344	459.582	-258.014	1705.447	266.391	-307.896	1705.11	594.381	-186.253	1627.652	448.256	-192.239	1199.427	324.488	-227.248	1217.972	557.154	-374.195	1243.512	419.74	-235.34	759.955	579.23	-213.152	752.847	467.698	-242.863	754.048	288.168	-236.672	742.277	399.412	-258.409	374.381	317.121	-67.104	332.41	313.047	-458.588	370.356	499.002	-332.025	417.138	485.207	-380.955	421.156	562.148	-107.607	321.874	371.823	-153.957	322.027	278.347	-340.919	309.188	370.22	-246.381	386.648	401.883	-218.916	666.906	283.804	-210.843	584.185	275.537	-194.439	335.031	597.1	-238.932	330.654	536.647	-300.13	335.352	627.022	-182.282	893.389	291.817	-186.188	974.761	283.19	-245.656	970.021	253.805	-289.473	921.679	594.119	-226.901	924.439	613.469	-213.528	843.126	598.385	-224.576	668.288	603.038	-261.629	589.671	599.871	-282.63	696.097	605.016	-281.736	664.441	270.719	-275.685	576.036	265.346	-318.417	621.23	601.932	-242.308	882.386	262.634	-274.242	837.715	579.242	-433.616	361.179	561.238	-387.439	345.215	472.283	-294.398	299.626	312.237	-272.569	306.907	414.311
2685	13.42	-67.993	1923.695	458.83	-257.209	1705.392	265.834	-307.844	1705.357	593.567	-185.583	1627.931	447.875	-191.205	1199.469	324.125	-226.217	1218.182	556.751	-373.211	1243.615	419.443	-233.663	760.123	578.513	-211.662	753.124	467.029	-242.397	754.022	288.004	-236.427	742.269	399.224	-258.354	374.396	317.118	-67.059	332.313	313.045	-454.919	368.996	498.248	-328.765	416.807	484.369	-377.647	420.467	561.307	-107.576	321.827	371.799	-153.934	322.007	278.336	-341.045	309.458	370.047	-246.536	386.652	401.718	-218.65	666.888	283.663	-210.723	584.184	275.371	-190.515	335.814	596.294	-235.018	331.07	535.839	-296.199	335.352	626.267	-181.659	893.292	291.658	-185.352	974.666	283.079	-244.894	970.036	253.648	-288.059	921.852	593.861	-225.325	924.694	612.839	-211.899	843.38	597.61	-222.649	668.519	602.272	-259.307	589.692	599.16	-280.801	696.012	604.298	-281.434	664.426	270.533	-275.476	575.974	265.206	-316.241	620.98	601.135	-241.703	882.425	262.444	-272.704	837.877	578.97	-429.832	360.048	560.511	-383.572	344.4	471.548	-294.379	299.678	312.262	-272.497	306.956	414.424
2686	13.425	-67.536	1924.043	458.018	-256.405	1705.367	265.31	-307.759	1705.597	592.783	-184.911	1628.202	447.514	-190.143	1199.537	323.825	-225.21	1218.393	556.392	-372.232	1243.726	419.173	-232.102	760.257	577.78	-210.387	753.373	466.33	-241.909	754.002	287.865	-236.16	742.265	399.097	-258.295	374.416	317.12	-67.013	332.216	313.045	-451.112	367.437	497.581	-325.427	416.392	483.525	-374.207	419.641	560.514	-107.543	321.781	371.777	-153.91	321.99	278.326	-341.181	309.725	369.879	-246.657	386.654	401.604	-218.373	666.876	283.541	-210.658	584.208	275.177	-186.38	336.612	595.423	-230.913	331.461	534.993	-292.063	335.294	625.507	-181.022	893.203	291.532	-184.551	974.604	282.997	-244.118	970.055	253.527	-286.685	922.033	593.709	-223.727	924.883	612.211	-210.384	843.503	596.949	-220.791	668.662	601.521	-256.974	589.664	598.331	-279.089	695.84	603.564	-281.167	664.427	270.384	-275.175	575.973	265.1	-314.003	620.628	600.461	-241.101	882.454	262.336	-271.336	838.036	578.739	-425.948	358.796	559.747	-379.58	343.447	470.847	-294.363	299.712	312.267	-272.437	306.998	414.476
2687	13.43	-67.157	1924.357	457.34	-255.6	1705.369	264.816	-307.638	1705.829	592.033	-184.238	1628.465	447.172	-189.099	1199.59	323.565	-224.228	1218.602	556.079	-371.257	1243.845	418.926	-230.653	760.357	577.035	-209.318	753.595	465.606	-241.419	753.992	287.75	-235.87	742.269	399.035	-258.235	374.442	317.125	-66.967	332.123	313.044	-447.171	365.692	496.998	-322.015	415.903	482.673	-370.641	418.687	559.767	-107.508	321.738	371.755	-153.884	321.975	278.317	-341.299	309.958	369.738	-246.735	386.656	401.551	-218.088	666.869	283.439	-210.652	584.26	274.955	-182.044	337.434	594.492	-226.611	331.832	534.107	-287.731	335.179	624.738	-180.374	893.121	291.438	-183.744	974.598	282.864	-243.331	970.077	253.44	-285.319	922.11	593.686	-222.189	925.049	611.622	-208.82	843.731	596.182	-218.948	668.887	600.742	-254.623	589.573	597.582	-277.43	695.568	602.744	-280.888	664.426	270.217	-274.95	576.017	265.011	-311.87	620.145	599.668	-240.444	882.46	262.164	-270.029	838.168	578.514	-421.804	357.369	559.151	-375.477	342.367	470.176	-294.335	299.719	312.261	-272.386	307.035	414.47
2688	13.435	-66.737	1924.658	456.736	-254.791	1705.398	264.349	-307.479	1706.05	591.319	-183.566	1628.718	446.847	-188.068	1199.616	323.361	-223.271	1218.809	555.814	-370.285	1243.971	418.701	-229.311	760.422	576.283	-208.443	753.788	464.864	-240.939	753.994	287.66	-235.555	742.284	399.036	-258.176	374.472	317.135	-66.922	332.034	313.043	-443.103	363.78	496.491	-318.535	415.353	481.814	-366.959	417.618	559.058	-107.473	321.698	371.733	-153.859	321.962	278.309	-341.384	310.143	369.636	-246.766	386.66	401.565	-217.796	666.867	283.363	-210.688	584.333	274.719	-177.52	338.289	593.513	-222.123	332.187	533.183	-283.219	335.005	623.956	-179.719	893.044	291.373	-182.946	974.464	282.805	-242.535	970.097	253.384	-283.91	922.287	593.654	-220.674	925.2	611.067	-207.423	843.846	595.501	-217.186	669.027	599.896	-252.232	589.459	596.761	-275.853	695.326	601.96	-280.616	664.414	270.135	-274.715	576.053	264.927	-309.779	619.613	598.841	-239.799	882.48	262.091	-268.768	838.351	578.311	-417.525	355.779	558.614	-371.269	341.173	469.53	-294.308	299.754	312.276	-272.335	307.075	414.417
2689	13.44	-66.37	1925.004	456.085	-253.98	1705.452	263.908	-307.281	1706.261	590.644	-182.895	1628.962	446.537	-187.026	1199.632	323.251	-222.338	1219.012	555.597	-369.315	1244.1	418.496	-228.071	760.456	575.527	-207.747	753.952	464.109	-240.474	754.008	287.595	-235.216	742.313	399.097	-258.117	374.508	317.149	-66.879	331.953	313.041	-438.911	361.723	496.045	-314.995	414.752	480.945	-363.175	416.447	558.377	-107.438	321.661	371.71	-153.835	321.953	278.302	-341.426	310.28	369.576	-246.748	386.666	401.641	-217.499	666.868	283.312	-210.723	584.414	274.502	-172.825	339.175	592.493	-217.473	332.526	532.219	-278.537	334.767	623.156	-179.061	892.97	291.339	-182.161	974.386	282.763	-241.733	970.112	253.359	-282.52	922.459	593.548	-219.211	925.339	610.427	-206.067	844.006	594.739	-215.418	669.122	599.022	-249.933	589.312	595.998	-274.283	694.931	601.14	-280.298	664.46	270.074	-274.455	576.024	264.884	-307.566	619.003	598.151	-239.201	882.515	262.049	-267.552	838.413	578.097	-413.126	354.187	558.133	-366.96	339.877	468.903	-294.288	299.772	312.292	-272.278	307.122	414.333
2690	13.445	-65.904	1925.35	455.516	-253.166	1705.529	263.491	-307.04	1706.46	590.012	-182.225	1629.196	446.24	-185.968	1199.709	323.141	-221.426	1219.21	555.428	-368.351	1244.232	418.31	-226.932	760.457	574.771	-207.213	754.084	463.35	-240.023	754.031	287.558	-234.854	742.357	399.21	-258.059	374.545	317.169	-66.838	331.88	313.038	-434.602	359.545	495.646	-311.406	414.113	480.07	-359.303	415.195	557.713	-107.402	321.627	371.688	-153.81	321.946	278.296	-341.427	310.375	369.554	-246.688	386.674	401.772	-217.195	666.871	283.288	-210.699	584.482	274.344	-167.985	340.076	591.43	-212.69	332.848	531.218	-273.693	334.46	622.335	-178.402	892.895	291.335	-181.358	974.303	282.668	-240.929	970.121	253.364	-281.136	922.447	593.256	-217.847	925.469	609.946	-203.216	844.02	595.319	-213.743	669.125	598.172	-247.517	589.059	595.212	-272.836	694.513	600.31	-280.009	664.494	269.988	-274.199	576.033	264.805	-305.476	618.271	597.451	-238.561	882.528	262.022	-266.485	838.533	577.843	-408.557	352.365	557.619	-362.542	338.494	468.293	-294.271	299.815	312.301	-272.209	307.181	414.233
